<svg width="24" height="45" viewBox="0 0 24 45" fill="none" xmlns="http://www.w3.org/2000/svg">
<g id="ChevronRight" clip-path="url(#clip0_1_1149)">
<path id="Vector" fill-rule="evenodd" clip-rule="evenodd" d="M0.566203 0.69834C0.724541 0.540513 0.912639 0.415294 1.11972 0.329856C1.32681 0.244418 1.54881 0.200439 1.77302 0.200439C1.99723 0.200439 2.21923 0.244418 2.42632 0.329856C2.6334 0.415294 2.8215 0.540513 2.97984 0.69834L23.4344 21.0355C23.5931 21.1929 23.7191 21.3799 23.805 21.5858C23.8909 21.7917 23.9352 22.0125 23.9352 22.2354C23.9352 22.4583 23.8909 22.679 23.805 22.8849C23.7191 23.0908 23.5931 23.2779 23.4344 23.4353L2.97984 43.7724C2.65977 44.0907 2.22567 44.2695 1.77302 44.2695C1.32038 44.2695 0.886271 44.0907 0.566203 43.7724C0.246135 43.4542 0.0663221 43.0226 0.0663221 42.5726C0.0663221 42.1225 0.246135 41.6909 0.566203 41.3727L19.8173 22.2354L0.566203 3.09813C0.407465 2.9407 0.281523 2.75368 0.195592 2.54778C0.109661 2.34188 0.0654297 2.12115 0.0654297 1.89823C0.0654297 1.67531 0.109661 1.45458 0.195592 1.24869C0.281523 1.04279 0.407465 0.855769 0.566203 0.69834Z" fill="white"/>
</g>
<defs>
<clipPath id="clip0_1_1149">
<rect width="24" height="44.4706" fill="white"/>
</clipPath>
</defs>
</svg>
