<svg width="38" height="38" viewBox="0 0 38 38" fill="none" xmlns="http://www.w3.org/2000/svg">
<g id="Group 11">
<rect id="Rectangle 69" x="-0.0078125" y="0.194092" width="37.024" height="37.024" rx="10.68" fill="#F6F6F6"/>
<path id="Vector" d="M18.4655 14.6696C16.2544 14.6696 14.4709 16.453 14.4709 18.6641C14.4709 20.8752 16.2544 22.6587 18.4655 22.6587C20.6766 22.6587 22.46 20.8752 22.46 18.6641C22.46 16.453 20.6766 14.6696 18.4655 14.6696ZM18.4655 21.2611C17.0366 21.2611 15.8685 20.0965 15.8685 18.6641C15.8685 17.2318 17.0331 16.0671 18.4655 16.0671C19.8978 16.0671 21.0625 17.2318 21.0625 18.6641C21.0625 20.0965 19.8943 21.2611 18.4655 21.2611ZM23.5551 14.5062C23.5551 15.0242 23.138 15.4379 22.6234 15.4379C22.1054 15.4379 21.6917 15.0207 21.6917 14.5062C21.6917 13.9916 22.1089 13.5744 22.6234 13.5744C23.138 13.5744 23.5551 13.9916 23.5551 14.5062ZM26.2008 15.4518C26.1417 14.2037 25.8566 13.0982 24.9423 12.1873C24.0314 11.2764 22.9259 10.9914 21.6778 10.9288C20.3915 10.8558 16.536 10.8558 15.2496 10.9288C14.005 10.9879 12.8995 11.273 11.9851 12.1838C11.0708 13.0947 10.7892 14.2002 10.7266 15.4483C10.6536 16.7346 10.6536 20.5901 10.7266 21.8765C10.7857 23.1246 11.0708 24.2301 11.9851 25.141C12.8995 26.0518 14.0016 26.3369 15.2496 26.3995C16.536 26.4725 20.3915 26.4725 21.6778 26.3995C22.9259 26.3404 24.0314 26.0553 24.9423 25.141C25.8532 24.2301 26.1382 23.1246 26.2008 21.8765C26.2738 20.5901 26.2738 16.7381 26.2008 15.4518ZM24.539 23.2567C24.2678 23.9381 23.7429 24.463 23.058 24.7377C22.0324 25.1444 19.5988 25.0506 18.4655 25.0506C17.3321 25.0506 14.895 25.141 13.8729 24.7377C13.1915 24.4665 12.6666 23.9416 12.3919 23.2567C11.9851 22.2311 12.079 19.7975 12.079 18.6641C12.079 17.5308 11.9886 15.0937 12.3919 14.0716C12.6631 13.3902 13.188 12.8652 13.8729 12.5906C14.8985 12.1838 17.3321 12.2777 18.4655 12.2777C19.5988 12.2777 22.0359 12.1873 23.058 12.5906C23.7394 12.8617 24.2644 13.3867 24.539 14.0716C24.9458 15.0972 24.8519 17.5308 24.8519 18.6641C24.8519 19.7975 24.9458 22.2346 24.539 23.2567Z" fill="#363E3E"/>
</g>
</svg>
