<svg width="22" height="33" viewBox="0 0 22 33" fill="none" xmlns="http://www.w3.org/2000/svg">
<g id="Group">
<path id="Vector" d="M18.9336 0.931396H3.02956C1.72668 0.931396 0.670898 1.98715 0.670898 3.29002V30.2012C0.670898 31.5041 1.72668 32.5598 3.02956 32.5598H18.9336C20.2365 32.5598 21.2923 31.5041 21.2923 30.2012V3.29002C21.2923 2.00961 20.2141 0.931396 18.9336 0.931396Z" fill="white"/>
<path id="Vector_2" d="M20.1466 4.72778H1.79395V26.9216H20.1466V4.72778Z" fill="#404040"/>
<g id="Group_2">
<g id="Group_3">
<path id="Vector_3" d="M14.7333 2.34619H7.20807C6.91605 2.34619 6.64648 2.59329 6.64648 2.90778C6.64648 3.22226 6.89358 3.46936 7.20807 3.46936H14.7333C15.0253 3.46936 15.2949 3.22226 15.2949 2.90778C15.2949 2.61575 15.0478 2.34619 14.7333 2.34619Z" fill="#6639A6"/>
</g>
</g>
<path id="Vector_4" d="M9.18457 29.5947C9.18457 28.6063 9.99326 27.7751 10.9816 27.7751C11.97 27.7751 12.8012 28.5838 12.8012 29.5947C12.8012 30.5831 11.9925 31.3917 10.9816 31.3917C9.99326 31.4142 9.18457 30.6055 9.18457 29.5947Z" fill="#6639A6"/>
</g>
</svg>
